<svg xmlns="http://www.w3.org/2000/svg" width="16" height="16" fill="none">
    <path fill="#fff" fill-opacity=".01" d="M0 0h16v16H0z"/>
    <path fill="#0d6efd" fill-rule="evenodd" d="M4.48 1.067h-.024c-.329 0-.612 0-.844.022a1.62 1.62 0 0 0-.715.213 1.6 1.6 0 0 0-.528.529 1.62 1.62 0 0 0-.214.714c-.022.232-.022.516-.022.844V12.611c0 .328 0 .612.022.844.024.245.076.488.214.714.132.216.313.397.528.529.226.138.47.19.715.213.232.022.515.022.844.022h7.088c.329 0 .612 0 .844-.022a1.62 1.62 0 0 0 .715-.213c.215-.132.396-.313.528-.529a1.62 1.62 0 0 0 .214-.714c.022-.232.022-.516.022-.844V3.389c0-.328 0-.612-.022-.844a1.62 1.62 0 0 0-.214-.714 1.599 1.599 0 0 0-.528-.529 1.62 1.62 0 0 0-.715-.213c-.232-.022-.515-.022-.844-.022H4.48ZM3.455 2.212c.03-.019.09-.045.258-.061.175-.017.408-.018.767-.018h7.04c.36 0 .592 0 .767.018.168.016.228.042.258.06a.534.534 0 0 1 .176.177c.02.03.046.09.062.258.017.176.017.408.017.767v9.174c0 .36 0 .591-.017.767-.016.168-.043.228-.062.258a.535.535 0 0 1-.176.176c-.03.019-.09.046-.258.061a9.123 9.123 0 0 1-.767.018H4.48c-.36 0-.592 0-.767-.018-.168-.015-.228-.042-.258-.06a.535.535 0 0 1-.176-.177c-.019-.03-.046-.09-.062-.258a9.124 9.124 0 0 1-.017-.767V3.413c0-.36 0-.591.017-.767.016-.167.043-.228.062-.258a.533.533 0 0 1 .176-.176Zm1.878 8.455a.533.533 0 0 0 0 1.066h3.2a.533.533 0 0 0 0-1.066h-3.2ZM4.8 8c0-.295.239-.533.533-.533h5.334a.533.533 0 0 1 0 1.066H5.333A.533.533 0 0 1 4.8 8Zm.533-3.733a.533.533 0 0 0 0 1.066h5.334a.533.533 0 0 0 0-1.066H5.333Z" clip-rule="evenodd"/>
</svg>